<svg xmlns="http://www.w3.org/2000/svg" xmlns:xlink="http://www.w3.org/1999/xlink" width="147.25021mm" height="102.25909mm" viewBox="0 0 417.40216 289.86828">
  <defs>
    <style>
      .a {
        isolation: isolate;
      }

      .b {
        fill: #00407d;
      }

      .c {
        fill: #009fe3;
      }

      .d {
        fill: url(#a);
      }

      .e {
        fill: url(#b);
      }

      .f {
        mix-blend-mode: multiply;
        fill: url(#c);
      }

      .g {
        fill: #2f2c7c;
      }
    </style>
    <linearGradient id="a" data-name="groen" x1="341.62894" y1="48.52999" x2="341.62894" gradientUnits="userSpaceOnUse">
      <stop offset="0" stop-color="#063"/>
      <stop offset="0.11487" stop-color="#1f792f"/>
      <stop offset="0.32578" stop-color="#519828"/>
      <stop offset="0.51016" stop-color="#76ae23"/>
      <stop offset="0.65887" stop-color="#8dbc20"/>
      <stop offset="0.75329" stop-color="#95c11f"/>
    </linearGradient>
    <linearGradient id="b" data-name="blauw" x1="317.39819" y1="99.41341" x2="417.40216" y2="99.41341" gradientUnits="userSpaceOnUse">
      <stop offset="0" stop-color="#2d2e83"/>
      <stop offset="1" stop-color="#009fe3"/>
    </linearGradient>
    <linearGradient id="c" data-name="paars" x1="265.92462" y1="99.41341" x2="365.92816" y2="99.41341" gradientUnits="userSpaceOnUse">
      <stop offset="0" stop-color="#662483"/>
      <stop offset="1" stop-color="#e6007e"/>
    </linearGradient>
  </defs>
  <title>logo-svg</title>
  <g class="a">
    <g>
      <g>
        <path class="b" d="M39.11386,289.04348a1.54024,1.54024,0,0,1-.46535-1.14247V266.144a1.60851,1.60851,0,0,1,.46535-1.16476,1.52818,1.52818,0,0,1,1.148-.48486H47.465a12.65174,12.65174,0,0,1,6.93562,1.81123,11.62766,11.62766,0,0,1,4.28286,4.67576,13.3513,13.3513,0,0,1,0,12.04329,11.62759,11.62759,0,0,1-4.28286,4.67576,12.65174,12.65174,0,0,1-6.93562,1.81123H40.2619A1.55513,1.55513,0,0,1,39.11386,289.04348Zm7.95547-2.58031a10.67218,10.67218,0,0,0,5.1634-1.1982,8.59753,8.59753,0,0,0,3.44134-3.33266,10.586,10.586,0,0,0,0-9.85867,8.59766,8.59766,0,0,0-3.44134-3.33266,10.67229,10.67229,0,0,0-5.1634-1.1982H41.90872v18.92039Z"/>
        <path class="b" d="M67.37462,289.22739a1.60335,1.60335,0,0,1-.44863-1.14805,1.945,1.945,0,0,1,.17833-.71891l9.14254-21.57872a2.71917,2.71917,0,0,1,.8053-1.0533,1.95831,1.95831,0,0,1,1.27343-.4124h.35667a1.96886,1.96886,0,0,1,1.27344.4124,2.74618,2.74618,0,0,1,.8053,1.0533l9.13974,21.57872a1.95753,1.95753,0,0,1,.18113.71891,1.60339,1.60339,0,0,1-.44863,1.14805,1.56163,1.56163,0,0,1-1.16476.46256,1.64,1.64,0,0,1-.914-.26751,1.68675,1.68675,0,0,1-.627-.73564L84.598,283.09707H72.40983l-2.32952,5.58973a1.705,1.705,0,0,1-.627.73564,1.64657,1.64657,0,0,1-.914.26751A1.553,1.553,0,0,1,67.37462,289.22739Zm6.28914-9.10631H83.3413l-4.83737-11.6476Z"/>
        <path class="b" d="M102.98618,289.22739a1.564,1.564,0,0,1-.46813-1.14805V267.54278h-7.3118a1.48026,1.48026,0,0,1-1.50471-1.51028,1.52323,1.52323,0,0,1,.43191-1.09231,1.43147,1.43147,0,0,1,1.0728-.44585h17.85037a1.52254,1.52254,0,0,1,1.54094,1.53816,1.419,1.419,0,0,1-.44584,1.07559,1.51608,1.51608,0,0,1-1.0951.43469h-7.27557v20.53656a1.53685,1.53685,0,0,1-.48485,1.14805,1.629,1.629,0,0,1-1.16476.46256A1.5657,1.5657,0,0,1,102.98618,289.22739Z"/>
        <path class="b" d="M118.66586,289.22739a1.60335,1.60335,0,0,1-.44863-1.14805,1.945,1.945,0,0,1,.17834-.71891l9.14253-21.57872a2.71917,2.71917,0,0,1,.8053-1.0533,1.95834,1.95834,0,0,1,1.27343-.4124h.35668a1.96881,1.96881,0,0,1,1.27343.4124,2.74608,2.74608,0,0,1,.8053,1.0533l9.13975,21.57872a1.95749,1.95749,0,0,1,.18112.71891,1.60335,1.60335,0,0,1-.44863,1.14805,1.56161,1.56161,0,0,1-1.16476.46256,1.64,1.64,0,0,1-.914-.26751,1.68677,1.68677,0,0,1-.627-.73564l-2.32952-5.58973H123.70108l-2.32952,5.58973a1.70506,1.70506,0,0,1-.627.73564,1.64657,1.64657,0,0,1-.914.26751A1.553,1.553,0,0,1,118.66586,289.22739Zm6.28915-9.10631h9.67754l-4.83738-11.6476Z"/>
        <path class="b" d="M168.62794,289.27754a2.49289,2.49289,0,0,1-.84153-1.1982l-7.02478-21.57871a2.49533,2.49533,0,0,1-.10867-.60746,1.42911,1.42911,0,0,1,.4124-1.13132,1.58406,1.58406,0,0,1,1.16476-.44584,1.51537,1.51537,0,0,1,1.00314.35667,1.94959,1.94959,0,0,1,.61025.93069l6.02164,19.78421,6.05787-19.71176a1.81368,1.81368,0,0,1,.69941-.98642,2.00338,2.00338,0,0,1,2.32952,0,1.84221,1.84221,0,0,1,.69941.98642l6.05508,19.71176,6.02165-19.78421a1.94957,1.94957,0,0,1,.61024-.93069,1.51538,1.51538,0,0,1,1.00315-.35667,1.58409,1.58409,0,0,1,1.16476.44584,1.4197,1.4197,0,0,1,.4124,1.13132,2.60415,2.60415,0,0,1-.10589.60746l-7.02757,21.57871a2.49282,2.49282,0,0,1-.84153,1.1982,2.09116,2.09116,0,0,1-1.27343.41241,2.13067,2.13067,0,0,1-1.30687-.44585,2.2142,2.2142,0,0,1-.8053-1.16476l-5.77086-18.27949-5.77086,18.27949a2.23472,2.23472,0,0,1-.80808,1.16476,2.13068,2.13068,0,0,1-1.30688.44585A2.09119,2.09119,0,0,1,168.62794,289.27754Z"/>
        <path class="b" d="M207.43006,288.21867a11.28533,11.28533,0,0,1-4.37482-4.54758,14.5863,14.5863,0,0,1,0-13.33623,11.33458,11.33458,0,0,1,4.37482-4.55315,14.01336,14.01336,0,0,1,13.17182,0,11.46615,11.46615,0,0,1,4.372,4.56987,14.37365,14.37365,0,0,1,0,13.29722,11.3949,11.3949,0,0,1-4.372,4.56987,13.9716,13.9716,0,0,1-13.17182,0Zm11.57515-2.68619a8.45765,8.45765,0,0,0,3.22678-3.511,11.88218,11.88218,0,0,0,0-10.037,8.45753,8.45753,0,0,0-3.22678-3.511,10.27815,10.27815,0,0,0-9.98127,0,8.46667,8.46667,0,0,0-3.20727,3.511,11.88208,11.88208,0,0,0,0,10.037,8.46679,8.46679,0,0,0,3.20727,3.511,10.27815,10.27815,0,0,0,9.98127,0Z"/>
        <path class="b" d="M236.10322,289.22739a1.56153,1.56153,0,0,1-.46535-1.14805V266.144a1.60851,1.60851,0,0,1,.46535-1.16476,1.52818,1.52818,0,0,1,1.148-.48486h8.35116q4.87361,0,7.3118,2.00629a6.4897,6.4897,0,0,1,2.43541,5.2665,6.84954,6.84954,0,0,1-1.201,3.929,6.70978,6.70978,0,0,1-3.49428,2.56359,4.9169,4.9169,0,0,1,3.53051,3.20449,14.05426,14.05426,0,0,1,.9502,4.96555v1.64961a1.58485,1.58485,0,0,1-1.61339,1.61061,1.63916,1.63916,0,0,1-1.201-.44585,1.57748,1.57748,0,0,1-.44584-1.16476v-1.07559a16.01238,16.01238,0,0,0-.32323-3.31594,5.355,5.355,0,0,0-1.54094-2.72521,5.05809,5.05809,0,0,0-3.69212-1.19819h-7.42047v8.31493a1.54461,1.54461,0,0,1-.48207,1.14805,1.63834,1.63834,0,0,1-1.16476.46256A1.572,1.572,0,0,1,236.10322,289.22739Zm9.28186-12.54486a8.63415,8.63415,0,0,0,4.8931-1.22049,3.91831,3.91831,0,0,0,1.81123-3.44413,3.839,3.839,0,0,0-1.56044-3.29365q-1.55905-1.14525-5.32223-1.148h-6.30865v9.10631Z"/>
        <path class="b" d="M265.20551,289.22739a1.56153,1.56153,0,0,1-.46535-1.14805V265.96562a1.5995,1.5995,0,0,1,.46535-1.16476,1.52821,1.52821,0,0,1,1.148-.48485,1.65062,1.65062,0,0,1,1.64682,1.64961v11.39682L280.25822,264.89a1.5566,1.5566,0,0,1,1.22049-.574,1.49333,1.49333,0,0,1,1.05609.4124,1.32758,1.32758,0,0,1,.44862,1.01986,1.487,1.487,0,0,1-.39568,1.109l-8.27871,8.24806,9.4992,11.97084a1.664,1.664,0,0,1,.3929,1.03658,1.40918,1.40918,0,0,1-.42912,1.11461,1.57658,1.57658,0,0,1-1.14805.46256,1.49571,1.49571,0,0,1-1.29015-.64647l-9.24563-11.7925-4.08781,4.124v6.70433a1.54464,1.54464,0,0,1-.48206,1.14805,1.63837,1.63837,0,0,1-1.16476.46256A1.572,1.572,0,0,1,265.20551,289.22739Z"/>
        <path class="b" d="M291.69405,288.15179a1.62132,1.62132,0,0,1-.71614-.59631,1.48662,1.48662,0,0,1-.287-.875,1.5121,1.5121,0,0,1,.41241-1.05888,1.37813,1.37813,0,0,1,1.05608-.44584,1.59059,1.59059,0,0,1,.6827.1449,17.21176,17.21176,0,0,0,7.061,1.4657q6.26964,0,6.27243-4.11845a2.30327,2.30327,0,0,0-.80809-1.79451,5.89942,5.89942,0,0,0-1.98957-1.13133q-1.18287-.40961-3.36889-.98085a42.68936,42.68936,0,0,1-4.69526-1.45455,8.22156,8.22156,0,0,1-3.08188-2.09546,5.27217,5.27217,0,0,1-1.29015-3.72834,6.725,6.725,0,0,1,1.07559-3.71163,7.41565,7.41565,0,0,1,3.171-2.65276,11.8413,11.8413,0,0,1,5.038-.98085,20.31844,20.31844,0,0,1,7.13067,1.18148,1.39309,1.39309,0,0,1,1.00315,1.43227,1.57812,1.57812,0,0,1-.3929,1.04215,1.30845,1.30845,0,0,1-1.03937.46256,1.55728,1.55728,0,0,1-.574-.1449,17.62647,17.62647,0,0,0-5.77085-.96413,8.77841,8.77841,0,0,0-4.6061,1.07559,3.34334,3.34334,0,0,0-1.77222,3.00943,2.76263,2.76263,0,0,0,.84152,2.09545,5.6769,5.6769,0,0,0,2.115,1.25393,32.52871,32.52871,0,0,0,3.45806.953,36.133,36.133,0,0,1,4.56987,1.35981,7.49353,7.49353,0,0,1,2.976,2.11775,5.71377,5.71377,0,0,1,1.23443,3.86767,6.03938,6.03938,0,0,1-1.14526,3.60574,7.6159,7.6159,0,0,1-3.22678,2.49114,12.05691,12.05691,0,0,1-4.80115.89168A21.33394,21.33394,0,0,1,291.69405,288.15179Z"/>
      </g>
      <path class="b" d="M46.24082,239.64388a13.9073,13.9073,0,0,1-5.01805-5.832l-40.054-91.87408a12.13464,12.13464,0,0,1-1.16844-4.64461,9.912,9.912,0,0,1,2.881-7.22512,9.7306,9.7306,0,0,1,7.20615-3.04876,10.10162,10.10162,0,0,1,5.549,1.61774,9.75589,9.75589,0,0,1,3.76208,4.06841L54.65773,218.412l33.882-86.25941a9.71709,9.71709,0,0,1,3.695-4.12968,10.09411,10.09411,0,0,1,5.52278-1.70526,9.74259,9.74259,0,0,1,7.25575,2.93206,9.91662,9.91662,0,0,1,2.99478,7.17844,12.233,12.233,0,0,1-1.09113,4.66211L68.33775,233.59451a13.90213,13.90213,0,0,1-4.92323,5.91079,12.88146,12.88146,0,0,1-7.4381,2.38795l-2.25958.019A12.89662,12.89662,0,0,1,46.24082,239.64388Z"/>
      <path class="b" d="M155.04645,130.27081a13.90739,13.90739,0,0,1,5.01805,5.832l40.054,91.87408a12.1346,12.1346,0,0,1,1.16844,4.64461,9.91205,9.91205,0,0,1-2.881,7.22512,9.73061,9.73061,0,0,1-7.20615,3.04876,10.1017,10.1017,0,0,1-5.549-1.61774,9.75585,9.75585,0,0,1-3.76208-4.06842l-35.2591-85.70654-33.882,86.2594a9.71705,9.71705,0,0,1-3.695,4.12969,10.09422,10.09422,0,0,1-5.52278,1.70526A9.74263,9.74263,0,0,1,96.274,240.665a9.91664,9.91664,0,0,1-2.99478-7.17844,12.233,12.233,0,0,1,1.09113-4.66212l38.57918-92.50425a13.90216,13.90216,0,0,1,4.92323-5.9108,12.88146,12.88146,0,0,1,7.4381-2.38795l2.25958-.019A12.89661,12.89661,0,0,1,155.04645,130.27081Z"/>
      <path class="b" d="M272.29961,130.27081a13.90739,13.90739,0,0,1,5.01805,5.832l40.054,91.87408a12.1346,12.1346,0,0,1,1.16844,4.64461,9.91205,9.91205,0,0,1-2.881,7.22512,9.7306,9.7306,0,0,1-7.20615,3.04876,10.1017,10.1017,0,0,1-5.549-1.61774,9.75585,9.75585,0,0,1-3.76208-4.06842l-35.2591-85.70654-33.882,86.2594a9.71705,9.71705,0,0,1-3.695,4.12969,10.09422,10.09422,0,0,1-5.52278,1.70526,9.74263,9.74263,0,0,1-7.25575-2.93206,9.91664,9.91664,0,0,1-2.99478-7.17844,12.233,12.233,0,0,1,1.09113-4.66212l38.57918-92.50425a13.90216,13.90216,0,0,1,4.92323-5.9108,12.88146,12.88146,0,0,1,7.4381-2.38795l2.25958-.019A12.89661,12.89661,0,0,1,272.29961,130.27081Z"/>
      <circle class="c" cx="147.28323" cy="207.75417" r="11.22648"/>
      <circle class="c" cx="264.53551" cy="207.75417" r="11.22648"/>
      <circle class="d" cx="341.62894" cy="24.265" r="24.265"/>
      <path class="e" d="M365.83118,123.39718A25.58681,25.58681,0,0,1,391.343,97.88534h3.36779A24.26241,24.26241,0,1,0,369.027,70.96316v4.45678a25.58681,25.58681,0,0,1-25.51178,25.51184h-3.29462A24.26309,24.26309,0,1,0,365.83118,127.259Z"/>
      <path class="f" d="M343.1084,100.93178h-2.788c-.0625.00354-.1261.00263-.18853.00653l-.00623-.00653h-.16022a25.58686,25.58686,0,0,1-25.51184-25.51184V73.8738l-.0039-.00409c.00036-.0517.0028-.103.0039-.15448V73.638a24.26451,24.26451,0,1,0-26.57294,24.19141c.15278-.00275.30408-.01166.45746-.01166h3.54981c.19147,0,.38061.01031.5711.01459l.03034-.0022.00287.00305a25.5844,25.5844,0,0,1,24.90753,25.4964v.75574l.02466.026c-.01367.324-.02332.64917-.02466.97619v.12561a24.26423,24.26423,0,1,0,25.70862-24.28131Z"/>
      <circle class="g" cx="341.66318" cy="125.15026" r="24.26498"/>
    </g>
  </g>
</svg>
