<?xml version="1.0" encoding="UTF-8" standalone="yes"?>
<svg xmlns="http://www.w3.org/2000/svg" viewBox="0 0 24 24" fill="#000000">
  <path d="M 8 2 L 8 4 L 7 4 L 0 6.28125 L 0 21 L 24 21 L 24 4 L 16 4 L 16 2 Z M 1 3 L 1 5 L 5 3.65625 L 5 3 Z M 12 6 C 15.3125 6 18 8.6875 18 12 C 18 15.3125 15.3125 18 12 18 C 8.6875 18 6 15.3125 6 12 C 6 8.6875 8.6875 6 12 6 Z M 12 8 C 9.789063 8 8 9.789063 8 12 C 8 14.210938 9.789063 16 12 16 C 14.210938 16 16 14.210938 16 12 C 16 9.789063 14.210938 8 12 8 Z"/>
</svg>
